<mxfile host="app.diagrams.net" agent="Mozilla/5.0 (Windows NT 10.0; Win64; x64) AppleWebKit/537.36 (KHTML, like Gecko) Chrome/129.0.0.0 Safari/537.36" version="24.7.17">
  <diagram id="UGf8eOms1rXhz4Y7dQsD" name="Сторінка-1">
    <mxGraphModel dx="1034" dy="454" grid="1" gridSize="10" guides="1" tooltips="1" connect="1" arrows="1" fold="1" page="1" pageScale="1" pageWidth="827" pageHeight="1169" math="0" shadow="0">
      <root>
        <mxCell id="0" />
        <mxCell id="1" parent="0" />
        <mxCell id="ZJ1bZm1pTV3pzfaRBoEJ-1" value="Start" style="ellipse;whiteSpace=wrap;html=1;" vertex="1" parent="1">
          <mxGeometry x="170" y="20" width="160" height="80" as="geometry" />
        </mxCell>
        <mxCell id="ZJ1bZm1pTV3pzfaRBoEJ-2" value="End" style="ellipse;whiteSpace=wrap;html=1;" vertex="1" parent="1">
          <mxGeometry x="170" y="470" width="160" height="80" as="geometry" />
        </mxCell>
        <mxCell id="ZJ1bZm1pTV3pzfaRBoEJ-3" value="Input P, r, n, t" style="shape=parallelogram;perimeter=parallelogramPerimeter;whiteSpace=wrap;html=1;fixedSize=1;" vertex="1" parent="1">
          <mxGeometry x="175" y="140" width="150" height="60" as="geometry" />
        </mxCell>
        <mxCell id="ZJ1bZm1pTV3pzfaRBoEJ-4" value="Output P, r, n, t, A, A-P" style="shape=parallelogram;perimeter=parallelogramPerimeter;whiteSpace=wrap;html=1;fixedSize=1;" vertex="1" parent="1">
          <mxGeometry x="175" y="360" width="150" height="60" as="geometry" />
        </mxCell>
        <mxCell id="ZJ1bZm1pTV3pzfaRBoEJ-5" value="A = P * ( 1 + r/n )^n*t" style="rounded=0;whiteSpace=wrap;html=1;" vertex="1" parent="1">
          <mxGeometry x="165" y="250" width="170" height="60" as="geometry" />
        </mxCell>
        <mxCell id="ZJ1bZm1pTV3pzfaRBoEJ-6" value="" style="endArrow=classic;html=1;rounded=0;exitX=0.5;exitY=1;exitDx=0;exitDy=0;" edge="1" parent="1" source="ZJ1bZm1pTV3pzfaRBoEJ-1" target="ZJ1bZm1pTV3pzfaRBoEJ-3">
          <mxGeometry width="50" height="50" relative="1" as="geometry">
            <mxPoint x="370" y="160" as="sourcePoint" />
            <mxPoint x="420" y="110" as="targetPoint" />
          </mxGeometry>
        </mxCell>
        <mxCell id="ZJ1bZm1pTV3pzfaRBoEJ-7" value="" style="endArrow=classic;html=1;rounded=0;entryX=0.466;entryY=0.027;entryDx=0;entryDy=0;entryPerimeter=0;exitX=0.461;exitY=0.994;exitDx=0;exitDy=0;exitPerimeter=0;" edge="1" parent="1" source="ZJ1bZm1pTV3pzfaRBoEJ-3" target="ZJ1bZm1pTV3pzfaRBoEJ-5">
          <mxGeometry width="50" height="50" relative="1" as="geometry">
            <mxPoint x="245" y="210" as="sourcePoint" />
            <mxPoint x="260" y="150" as="targetPoint" />
          </mxGeometry>
        </mxCell>
        <mxCell id="ZJ1bZm1pTV3pzfaRBoEJ-8" value="" style="endArrow=classic;html=1;rounded=0;exitX=0.5;exitY=1;exitDx=0;exitDy=0;" edge="1" parent="1" source="ZJ1bZm1pTV3pzfaRBoEJ-5" target="ZJ1bZm1pTV3pzfaRBoEJ-4">
          <mxGeometry width="50" height="50" relative="1" as="geometry">
            <mxPoint x="270" y="120" as="sourcePoint" />
            <mxPoint x="270" y="160" as="targetPoint" />
          </mxGeometry>
        </mxCell>
        <mxCell id="ZJ1bZm1pTV3pzfaRBoEJ-9" value="" style="endArrow=classic;html=1;rounded=0;exitX=0.5;exitY=1;exitDx=0;exitDy=0;entryX=0.5;entryY=0;entryDx=0;entryDy=0;" edge="1" parent="1" source="ZJ1bZm1pTV3pzfaRBoEJ-4" target="ZJ1bZm1pTV3pzfaRBoEJ-2">
          <mxGeometry width="50" height="50" relative="1" as="geometry">
            <mxPoint x="260" y="320" as="sourcePoint" />
            <mxPoint x="260" y="370" as="targetPoint" />
          </mxGeometry>
        </mxCell>
      </root>
    </mxGraphModel>
  </diagram>
</mxfile>
